<?xml version="1.0" encoding="utf-8"?>
<!-- Generator: Adobe Illustrator 16.0.0, SVG Export Plug-In . SVG Version: 6.00 Build 0)  -->
<!DOCTYPE svg PUBLIC "-//W3C//DTD SVG 1.1//EN" "http://www.w3.org/Graphics/SVG/1.1/DTD/svg11.dtd">
<svg version="1.1" id="Layer_1" xmlns="http://www.w3.org/2000/svg" xmlns:xlink="http://www.w3.org/1999/xlink" x="0px" y="0px"
	 width="10px" height="10px" viewBox="0 0 10 10" enable-background="new 0 0 10 10" xml:space="preserve">
<path fill="#00AEEF" d="M32.299,9.877c0-1.725-0.327-3.344-0.98-4.86c-0.653-1.516-1.529-2.835-2.626-3.959
	c-1.098-1.124-2.353-2.012-3.763-2.665c-1.412-0.653-2.875-0.98-4.391-0.98c-1.568,0-3.044,0.327-4.43,0.98
	c-1.385,0.653-2.613,1.542-3.684,2.665c-1.072,1.124-1.908,2.443-2.509,3.959c-0.601,1.516-0.901,3.135-0.901,4.86
	c0,1.726,0.313,3.358,0.94,4.9c0.627,1.541,1.477,2.887,2.548,4.037s2.313,2.051,3.724,2.705c1.411,0.652,2.9,0.979,4.468,0.979
	c1.673,0,3.215-0.327,4.626-0.979c1.411-0.654,2.64-1.555,3.685-2.705s1.855-2.496,2.43-4.037
	C32.011,13.235,32.299,11.603,32.299,9.877z M26.105,34.258H15.209l-6.037,66.164c-0.156,1.726-0.025,3.45,0.393,5.175
	s1.11,3.279,2.077,4.664c0.967,1.386,2.208,2.522,3.724,3.41c1.516,0.889,3.293,1.333,5.33,1.333c2.144,0,3.973-0.444,5.488-1.333
	c1.516-0.888,2.744-2.024,3.685-3.41c0.94-1.385,1.594-2.939,1.96-4.664c0.365-1.725,0.471-3.449,0.313-5.175L26.105,34.258z"/>
</svg>
