<?xml version="1.0" encoding="utf-8"?>
<!-- Generator: Adobe Illustrator 16.0.0, SVG Export Plug-In . SVG Version: 6.00 Build 0)  -->
<!DOCTYPE svg PUBLIC "-//W3C//DTD SVG 1.1//EN" "http://www.w3.org/Graphics/SVG/1.1/DTD/svg11.dtd">
<svg version="1.1" id="Layer_1" xmlns="http://www.w3.org/2000/svg" xmlns:xlink="http://www.w3.org/1999/xlink" x="0px" y="0px"
	 width="480px" height="640px" viewBox="0 0 480 640" enable-background="new 0 0 480 640" xml:space="preserve">
<path fill="#FF0000" stroke="#000000" stroke-miterlimit="10" d="M92,139c13.914,5.98,12.854,17.065,19.98,28.009
	c4.679,7.187,13.713,9.729,18.293,16.955c7.312,11.536,10.737,34.341,23.929,42.055c7.376,4.313,27.59,2.588,37.052,3.032
	c10.934,0.513,21.65-1.052,32.646-1.052c11.509,0,23.686,1.228,35.1,0.052c6.502-0.67,24.575,0.691,29.996-2.032
	c4.704-2.363,5.438-11.117,7.757-16.793c3.945-9.658,8.832-18.637,14.541-27.269c11.036-16.684,8.676-32.615,12.952-51.148
	c-2.848-1.264-24.468,9.345-28.047,12.171c-4.383,3.46-3.954,7.833-7.176,12.069c-3.274,4.304-8.087,5.691-11.746,9.205
	c-6.564,6.304-6.41,11.424-15.829,14.991c-16.347,6.191-39.262,2.694-57.345,1.977c-14.314-0.568-28.219-0.665-42.107-3.472
	c-11.898-2.405-14.406-11.697-23.975-17.751c-16.875-10.676-21.673-22-44.021-22"/>
<g>
</g>
<g>
</g>
<g>
</g>
<g>
</g>
<g>
</g>
<g>
</g>
<g>
</g>
<g>
</g>
<g>
</g>
<g>
</g>
<g>
</g>
<g>
</g>
<g>
</g>
<g>
</g>
<g>
</g>
</svg>
