<?xml version="1.0" encoding="utf-8"?>
<!-- Generator: Adobe Illustrator 16.0.0, SVG Export Plug-In . SVG Version: 6.00 Build 0)  -->
<!DOCTYPE svg PUBLIC "-//W3C//DTD SVG 1.0//EN" "http://www.w3.org/TR/2001/REC-SVG-20010904/DTD/svg10.dtd">
<svg version="1.0" id="Layer_1" xmlns="http://www.w3.org/2000/svg" xmlns:xlink="http://www.w3.org/1999/xlink" x="0px" y="0px"
	 width="595.28px" height="841.89px" viewBox="0 0 595.28 841.89" enable-background="new 0 0 595.28 841.89" xml:space="preserve">
<linearGradient id="SVGID_1_" gradientUnits="userSpaceOnUse" x1="297.2231" y1="429.8105" x2="299.1033" y2="411.9219">
	<stop  offset="0" style="stop-color:#97D3DB"/>
	<stop  offset="0.2564" style="stop-color:#8CC7DC"/>
	<stop  offset="1" style="stop-color:#6DA5DA"/>
</linearGradient>
<path fill-rule="evenodd" clip-rule="evenodd" fill="url(#SVGID_1_)" d="M292.372,413.247h11.583c1.006,0,1.828,0.823,1.828,1.829
	v11.583c0,1.006-0.822,1.828-1.828,1.828h-11.583c-1.006,0-1.829-0.822-1.829-1.828v-11.583
	C290.543,414.069,291.366,413.247,292.372,413.247z"/>
<path fill-rule="evenodd" clip-rule="evenodd" fill="#FFFFFF" stroke="#FFFFFF" stroke-width="0.216" stroke-miterlimit="22.9256" d="
	M293.811,417.843v6.524c0.021,0.418,0.088,0.82,0.243,1.193c0.206,0.436,0.484,0.876,0.824,1.267
	c0.194,0.278,0.513,0.332,0.834,0.458h2.854c0.262-0.063,0.446-0.211,0.646-0.447l3.754-5.678c0.393-0.898-0.503-1.394-0.962-0.807
	l-1.404,2.133c-0.347,0.273-0.582,0.229-0.752,0l0.021-6.391c-0.2-0.851-0.799-0.849-1.007-0.012l0.034,5.364
	c-0.171,0.401-0.578,0.418-0.818,0l-0.021-5.838c-0.019-0.807-0.766-0.873-0.884-0.059v5.831c-0.063,0.433-0.769,0.511-0.798-0.117
	l-0.011-5.339c-0.065-0.821-0.904-0.744-0.983,0.083l0.021,5.374c-0.214,0.301-0.563,0.302-0.807,0.012l-0.015-3.595
	C294.395,417.138,293.926,417.203,293.811,417.843z"/>
</svg>
