<?xml version="1.0" encoding="UTF-8" standalone="no"?>
<svg width="640" height="480" version="1.1" xmlns:xlink="http://www.w3.org/1999/xlink" xmlns="http://www.w3.org/2000/svg">
	<path d="M33 458h597M33 435.95h597M33 413.9h597M33 391.85h597M33 369.8h597M33 347.75h597M33 325.7h597M33 303.65h597M33 281.6h597M33 259.55h597M33 237.5h597M33 215.45h597M33 193.4h597M33 171.35h597M33 149.3h597M33 127.25h597M33 105.2h597M33 83.15h597M33 61.1h597M33 39.05h597M33 17h597M33 17v441M232 17v441M431 17v441M630 17v441" stroke="rgb(220,220,220)"/>
</svg>