<?xml version="1.0" encoding="utf-8"?>
<svg version="1.1" id="Layer_1" xmlns="http://www.w3.org/2000/svg" x="0px" y="0px"
	 width="170px" height="118px" viewBox="0 0 170 118" enable-background="new 0 0 170 118">
<g>
	<path fill="#F3E49F" d="M131.486,61.32c0,9.065,8.672,14.449,18.953,16.414c11.18,2.135,19.875-5.989,19.552-16.772
		c-0.312-10.42-9.708-17.77-19.552-16.054C140.128,46.706,131.486,52.256,131.486,61.32z"/>
	<path fill="#846C46" fill-opacity="0.132" d="M156.463,77.861c4.467-0.676,8.232-3.051,10.723-6.766
		c1.371-2.044,2.338-4.746,2.666-7.443c0.112-0.93,0.11-3.319-0.002-4.235c-0.281-2.27-1.117-4.732-2.248-6.621
		c-0.972-1.624-2.822-3.665-4.344-4.793c-3.837-2.843-8.65-3.922-13.283-2.978l-0.723,0.147l1.607,0.054
		c2.923,0.099,5.103,0.626,7.615,1.84c1.891,0.913,3.315,1.931,4.752,3.396c1.41,1.437,2.172,2.484,3.033,4.173
		c2.522,4.942,2.293,10.568-0.611,14.979c-1.699,2.582-4.06,4.576-7.258,6.136c-1.859,0.906-3.445,1.414-5.14,1.646
		c-0.392,0.055-0.401,0.063-0.401,0.347v0.291l1.289-0.011c0.789,0,1.693-0.067,2.326-0.164L156.463,77.861z"/>
	<path fill="#F3E49F" d="M38.513,61.32c0,9.065-8.671,14.449-18.953,16.414C8.381,79.869-0.314,71.745,0.009,60.962
		c0.312-10.42,9.708-17.77,19.551-16.054C29.872,46.706,38.513,52.256,38.513,61.32z"/>
	<path fill="#846C46" fill-opacity="0.132" d="M13.537,77.861c-4.467-0.676-8.233-3.051-10.723-6.766
		c-1.371-2.044-2.338-4.746-2.665-7.443c-0.113-0.93-0.111-3.319,0.002-4.235c0.281-2.27,1.117-4.732,2.247-6.621
		c0.972-1.624,2.823-3.665,4.344-4.793c3.837-2.843,8.651-3.922,13.285-2.978l0.722,0.147l-1.608,0.054
		c-2.922,0.099-5.102,0.626-7.615,1.84c-1.89,0.913-3.315,1.931-4.752,3.396c-1.41,1.437-2.171,2.484-3.033,4.173
		c-2.522,4.942-2.292,10.568,0.611,14.979c1.7,2.582,4.06,4.576,7.258,6.136c1.86,0.906,3.446,1.414,5.14,1.646
		c0.391,0.055,0.402,0.063,0.402,0.347v0.291l-1.29-0.011c-0.789,0-1.693-0.067-2.326-0.164L13.537,77.861z"/>
	<g>
		<path fill="#CAB47A" d="M21.785,63.201c-0.716,4.199-5.378,8.018-8.168,6.761c-3.236-1.457-5.567-4.147-4.895-8.353
			c0.673-4.208,2.937-6.114,6.374-7.001C20.451,53.227,22.506,58.973,21.785,63.201z"/>
		<path fill="#BAA468" d="M12.873,69.577c-0.672-0.354-1.449-0.915-2.021-1.457c-1.629-1.546-2.368-3.483-2.187-5.736
			c0.191-2.38,1.027-4.346,2.413-5.677c0.804-0.772,1.713-1.311,2.943-1.746c1.696-0.6,2.932-0.687,4.14-0.292
			c0.282,0.092,0.372,0.148,0.358,0.222c-0.016,0.084-0.143,0.104-0.856,0.135c-2.698,0.117-4.99,1.332-6.303,3.342
			c-0.571,0.874-0.961,1.938-1.152,3.142c-0.112,0.706-0.093,2.461,0.033,3.041c0.354,1.629,1.362,3.374,2.81,4.87
			c0.199,0.206,0.333,0.374,0.298,0.374C13.314,69.795,13.099,69.697,12.873,69.577L12.873,69.577z"/>
	</g>
	<g>
		<path fill="#CAB47A" d="M149.236,63.201c0.716,4.199,5.377,8.018,8.168,6.761c3.236-1.457,5.566-4.147,4.895-8.353
			c-0.673-4.208-2.938-6.114-6.374-7.001C150.57,53.227,148.516,58.973,149.236,63.201L149.236,63.201z"/>
		<path fill="#BAA468" d="M158.148,69.577c0.672-0.354,1.449-0.915,2.021-1.457c1.629-1.546,2.368-3.483,2.187-5.736
			c-0.19-2.38-1.026-4.346-2.412-5.677c-0.805-0.772-1.713-1.311-2.943-1.746c-1.695-0.6-2.932-0.687-4.141-0.292
			c-0.281,0.092-0.371,0.148-0.357,0.222c0.016,0.084,0.143,0.104,0.855,0.135c2.699,0.117,4.99,1.332,6.304,3.342
			c0.571,0.874,0.961,1.938,1.151,3.142c0.112,0.706,0.094,2.461-0.033,3.041c-0.354,1.629-1.361,3.374-2.809,4.87
			c-0.199,0.206-0.334,0.374-0.299,0.374S157.922,69.697,158.148,69.577L158.148,69.577z"/>
	</g>
	<path fill="#A08354" d="M47.594,1.057c3.211,4.138,3.805,5.82,1.674,8.676c-0.466,0.625-0.924,1.223-1.355,1.775
		c-3.807,4.871-9.136,8.848-13.115,13.58c-3.878,4.613-7.658,9.404-10.492,14.722c-2.636,4.947-4.725,10.262-5.923,15.738
		c-1.535,7.017-1.979,13.66-1.354,20.813c0.486,5.562,1.973,12.49,4.569,17.431c2.658,5.06,6.204,8.776,10.661,12.353
		c2.914,2.338,6.313,4.111,9.815,5.416c7.133,2.656,14.973,3.484,22.507,4.568c8.008,1.152,16.109,1.954,24.198,1.861
		c7.369-0.084,14.736-0.959,22-2.2c6.352-1.085,12.07-2.073,17.938-4.738c4.902-2.227,9.254-5.301,13.03-9.138
		c4.215-4.282,8.229-8.553,10.661-14.046c1.667-3.767,2.59-7.907,2.877-12.015c0.371-5.314,0.031-11.398-1.186-16.584
		c-1.117-4.763-2.732-8.479-4.906-12.861c-2.805-5.651-5.848-11.315-9.984-16.076c-4.676-5.381-10.572-11.002-16.753-14.553
		c-5.462-3.138-11.495-5.18-17.642-6.557c-5.621-1.26-11.557-0.637-17.049-1.058c-3.119-0.239-6.42,0.158-9.181-1.311
		c-2.319-1.234-2.677-2.049-0.566-6.854c-3.861,2.664-5.566,4.667-6.414,7.7c-0.29,1.036-1.796-3.262-0.317-6.26
		c-3.12,1.546-4.502,5.66-5.014,5.71C65.15,7.26,64.582,3.4,64.413,0.888c-2.363,2.43-2.877,7.53-2.877,7.53
		c-0.583,0.223-2.697-5.211-1.523-7.869c-3.443,2.233-2.312,8.103-3.427,8.673C55.267,9.896,55.785,3.721,47.594,1.057L47.594,1.057
		z"/>
	<path opacity="0.171" enable-background="new    " d="M86.093,40.197c-1.726-1.005-4.56-3.043-6.946-4.006
		c-3.472-1.4-7.063-2.364-10.804-2.498c-4.332-0.156-8.795,0.623-12.804,2.274c-4.082,1.681-7.774,4.918-10.889,8.046
		c-3.583,3.599-6.608,7.9-8.615,12.564c-2.775,6.446-4.749,12.806-4.512,19.819c0.18,5.351,1.802,10.771,4.427,15.437
		c2.104,3.739,5.434,6.846,8.904,9.368c4.157,3.021,8.908,4.814,13.831,6.292c6.608,1.983,13.575,2.705,20.462,3.11
		c7.21,0.426,14.498,0.234,21.658-0.718c5.524-0.733,10.649-1.745,15.852-3.743c4.248-1.634,8.473-3.662,11.966-6.582
		c3.547-2.963,6.851-6.375,8.903-10.515c1.496-3.017,2.041-6.464,2.394-9.812c0.421-4.008,0.371-8.123-0.358-12.086
		c-0.902-4.9-2.932-9.58-5.16-14.036c-1.916-3.829-4.137-7.638-7.18-10.65c-2.887-2.856-5.927-5.285-9.664-6.87
		c-3.537-1.5-7.238-2.277-11.078-2.344c-4.545-0.078-9.17,0.858-13.402,2.513C90.489,36.774,88.234,39.209,86.093,40.197
		L86.093,40.197z"/>
	<path d="M127.956,66.844c0,4.042-3.22,7.319-7.192,7.319c-3.972,0-7.191-3.277-7.191-7.319s3.22-7.318,7.191-7.318
		C124.736,59.525,127.956,62.802,127.956,66.844z"/>
	<path fill="#E9DA98" d="M86.085,41.188c-1.672-0.974-4.418-2.949-6.73-3.881c-3.364-1.357-6.843-2.29-10.468-2.421
		c-4.197-0.151-8.522,0.604-12.405,2.203c-3.955,1.629-7.532,4.764-10.55,7.796c-3.471,3.487-6.402,7.654-8.347,12.173
		c-2.688,6.245-4.601,12.408-4.371,19.203c0.175,5.183,1.746,10.437,4.29,14.955c2.039,3.622,5.265,6.632,8.627,9.077
		c4.028,2.928,8.631,4.665,13.4,6.096c6.402,1.922,13.152,2.621,19.825,3.014c6.986,0.412,14.046,0.227,20.984-0.695
		c5.352-0.711,10.317-1.691,15.357-3.628c4.117-1.582,8.209-3.548,11.593-6.376c3.437-2.872,6.638-6.176,8.627-10.188
		c1.449-2.923,1.978-6.264,2.319-9.508c0.408-3.883,0.359-7.869-0.348-11.709c-0.875-4.748-2.841-9.281-5-13.598
		c-1.855-3.71-4.007-7.401-6.955-10.318c-2.797-2.767-5.742-5.12-9.363-6.656c-3.426-1.453-7.012-2.207-10.733-2.271
		c-4.403-0.076-8.883,0.831-12.983,2.435c-2.506,0.98-4.69,3.34-6.767,4.297H86.085z"/>
	<path fill="#F3E49F" d="M86.396,43.294c-1.597-0.925-4.218-2.803-6.425-3.689c-3.211-1.29-6.533-2.177-9.994-2.301
		c-4.007-0.143-8.135,0.574-11.843,2.094c-3.776,1.548-7.191,4.528-10.072,7.409c-3.314,3.314-6.112,7.275-7.969,11.57
		c-2.566,5.936-4.392,11.793-4.173,18.251c0.167,4.927,1.667,9.919,4.095,14.215c1.946,3.443,5.026,6.304,8.236,8.627
		c3.845,2.783,8.24,4.435,12.793,5.796c6.112,1.826,12.556,2.49,18.926,2.864c6.67,0.392,13.41,0.215,20.033-0.661
		c5.11-0.676,9.851-1.607,14.661-3.447c3.93-1.504,7.837-3.373,11.068-6.062c3.281-2.729,6.336-5.87,8.235-9.683
		c1.384-2.777,1.888-5.952,2.214-9.036c0.391-3.691,0.344-7.479-0.332-11.13c-0.834-4.512-2.711-8.82-4.772-12.924
		c-1.771-3.526-3.826-7.034-6.642-9.807c-2.668-2.63-5.48-4.867-8.938-6.327c-3.271-1.381-6.693-2.097-10.247-2.158
		c-4.203-0.072-8.481,0.79-12.396,2.314c-2.394,0.932-4.479,3.174-6.461,4.084L86.396,43.294z"/>
	<path fill="#3B320D" fill-opacity="0.114" d="M69.614,90.402c0.112,0.041,0.164,0.22,0.219,0.49l0.103,0.463
		c0.046,0.168,0.109,0.349,0.212,0.515c0.158,0.29,0.448,0.579,0.838,0.854c0.392,0.273,0.904,0.496,1.523,0.719
		c0.645,0.226,1.384,0.404,2.21,0.563c0.854,0.163,1.778,0.291,2.766,0.385c0.988,0.094,2.041,0.155,3.148,0.196
		c1.895,0.068,3.921,0.056,6.029-0.037l0.879-0.043c2.393-0.13,4.656-0.346,6.721-0.643c1.023-0.15,1.987-0.308,2.881-0.49
		c0.893-0.183,1.715-0.392,2.463-0.628c0.681-0.217,1.27-0.434,1.76-0.691c0.429-0.244,0.764-0.439,0.955-0.672
		c0.091-0.1,0.164-0.197,0.209-0.29c0.055-0.102,0.082-0.227,0.091-0.351c0.019-0.178-0.017-0.356-0.062-0.521l-0.143-0.449
		c-0.085-0.264-0.116-0.446-0.036-0.53c0.081-0.085,0.271-0.077,0.552,0.077c0.142,0.076,0.305,0.191,0.476,0.365
		c0.17,0.176,0.347,0.41,0.491,0.739c0.104,0.257,0.168,0.562,0.152,0.91c-0.019,0.306-0.094,0.62-0.23,0.912
		c-0.283,0.594-0.744,1.139-1.268,1.546c-0.586,0.477-1.279,0.896-2.02,1.254c-0.809,0.393-1.704,0.748-2.666,1.059
		c-0.963,0.31-1.99,0.573-3.055,0.801c-2.172,0.468-4.568,0.794-7.078,0.945l-0.924,0.049c-2.219,0.099-4.37,0.052-6.378-0.127
		c-1.165-0.103-2.296-0.25-3.367-0.45c-1.071-0.201-2.082-0.456-3.012-0.759c-0.904-0.293-1.751-0.65-2.493-1.068
		c-0.712-0.395-1.349-0.889-1.828-1.434c-0.515-0.574-0.796-1.256-0.873-1.848c-0.035-0.354,0-0.65,0.061-0.893
		c0.061-0.243,0.148-0.432,0.236-0.575c0.176-0.284,0.347-0.382,0.459-0.341L69.614,90.402z"/>
	<g>
		<path fill="#D6C785" d="M83.352,79.665c-0.373,0.756-1.797,0.858-3.181,0.229c-1.384-0.629-2.204-1.752-1.831-2.509
			c0.373-0.756,1.797-0.858,3.181-0.229S83.725,78.908,83.352,79.665z"/>
		<path fill="#D6C785" d="M89.396,79.665c0.373,0.756,1.797,0.858,3.181,0.229s2.204-1.752,1.831-2.509
			c-0.373-0.756-1.797-0.858-3.182-0.229C89.843,77.785,89.023,78.908,89.396,79.665z"/>
	</g>
	<g>
		<path fill="#856D46" d="M83.352,78.686c-0.373,0.756-1.797,0.859-3.181,0.23c-1.384-0.629-2.204-1.752-1.831-2.509
			s1.797-0.859,3.181-0.23C82.905,76.807,83.725,77.93,83.352,78.686z"/>
		<path fill="#856D46" d="M89.396,78.686c0.373,0.756,1.797,0.859,3.181,0.23s2.204-1.752,1.831-2.509s-1.797-0.859-3.182-0.23
			C89.843,76.807,89.023,77.93,89.396,78.686z"/>
	</g>
	<path fill="#423623" d="M64.122,66.536c0,3.7-3,6.7-6.701,6.7c-3.701,0-6.701-3-6.701-6.7c0-3.701,3-6.701,6.701-6.701
		C61.122,59.835,64.122,62.835,64.122,66.536z"/>
	<path fill="#55452D" d="M62.297,66.625c0,2.809-2.277,5.086-5.086,5.086s-5.086-2.277-5.086-5.086s2.277-5.085,5.086-5.085
		S62.297,63.816,62.297,66.625z"/>
	<path fill="#F7EDBF" fill-opacity="0.785" d="M57.896,63.891c0,1.481-1.201,2.683-2.682,2.683s-2.682-1.201-2.682-2.683
		c0-1.48,1.201-2.682,2.682-2.682S57.896,62.41,57.896,63.891z"/>
	<path fill="#423623" d="M121.719,66.536c0,3.7-3,6.7-6.701,6.7s-6.701-3-6.701-6.7c0-3.701,3-6.701,6.701-6.701
		S121.719,62.835,121.719,66.536z"/>
	<path fill="#55452D" d="M120.172,66.625c0,2.809-2.277,5.086-5.086,5.086S110,69.434,110,66.625s2.277-5.085,5.086-5.085
		S120.172,63.816,120.172,66.625z"/>
	<path fill="#856D46" d="M56.385,10.763c-0.209-0.122-0.73-0.593-1.515-2.43c-0.315-0.736-0.755-1.523-0.912-1.782
		c-0.86-1.425-1.889-2.645-2.889-3.707c-0.148-0.157-0.257-0.286-0.241-0.286c0.054,0,0.512,0.308,0.997,0.67
		c0.27,0.201,0.761,0.637,1.104,0.978c1.038,1.035,1.534,1.765,2.435,3.584c0.638,1.289,0.777,1.494,1.013,1.494
		c0.297,0,0.505-0.281,0.654-0.883c0.044-0.177,0.157-0.922,0.252-1.655c0.181-1.401,0.313-2.142,0.49-2.767
		c0.158-0.555,0.421-1.226,0.637-1.623c0.182-0.336,0.685-1.046,0.717-1.014c0.009,0.009-0.069,0.207-0.171,0.44
		c-0.476,1.082-0.623,1.704-0.955,4.036c-0.117,0.824-0.262,1.774-0.321,2.111c-0.234,1.327-0.543,2.221-0.933,2.699
		C56.599,10.81,56.518,10.84,56.385,10.763z"/>
	<path fill="#856D46" d="M60.375,8.271c-0.529-0.835-0.998-2.135-1.15-3.186c-0.047-0.325-0.046-1.302,0.001-1.69
		c0.052-0.422,0.161-0.864,0.303-1.228l0.135-0.312l-0.005,0.441c-0.064,1.589,0.534,4.112,1.314,5.542
		c0.166,0.304,0.42,0.599,0.516,0.599c0.053,0,0.064-0.041,0.113-0.411c0.232-1.761,0.844-3.87,1.507-5.198
		c0.213-0.427,0.717-1.26,0.745-1.232c0.006,0.006-0.075,0.207-0.181,0.446c-0.315,0.71-0.581,1.56-0.794,2.536
		c-0.08,0.366-0.221,1.164-0.462,2.603c-0.175,1.005-0.116,2.361-0.628,2.445c-0.466,0.076-1.019-0.736-1.414-1.353V8.271z"/>
	<path fill="#856D46" d="M66.012,8.176c-0.157-0.071-0.387-0.359-0.561-0.701c-0.422-0.829-0.826-2.317-0.966-3.563
		c-0.077-0.687-0.075-1.151,0.009-1.515c0.031-0.136,0.04-0.116,0.072,0.17c0.08,0.703,0.216,1.535,0.354,2.161
		c0.337,1.532,0.757,2.35,1.246,2.424c0.11,0.016,0.165-0.001,0.245-0.08c0.133-0.13,0.249-0.312,0.826-1.282
		c0.574-0.967,1.068-1.689,1.546-2.263l0.108-0.119l-0.195,0.438c-0.11,0.238-0.361,0.81-0.559,1.271
		c-0.448,1.045-0.594,1.37-0.787,1.758c-0.392,0.786-0.708,1.188-1.026,1.306C66.232,8.215,66.094,8.213,66.012,8.176L66.012,8.176z
		"/>
	<path fill="#856D46" d="M71.342,8.727c-0.481-0.179-0.93-1.04-1.082-2.076c-0.128-0.869-0.082-1.902,0.116-2.634
		c0.092-0.341,0.39-1.16,0.412-1.137l-0.023,0.172c-0.103,0.539-0.146,1.502-0.096,2.148c0.088,1.127,0.398,2.289,0.69,2.591
		c0.142,0.146,0.192,0.098,0.317-0.303c0.503-1.611,1.133-2.756,2.186-3.968c0.231-0.266,0.951-1.005,0.979-1.005l-0.15,0.218
		c-0.456,0.6-0.786,1.165-1.395,2.389C72.72,6.28,72.645,6.454,72.18,7.739c-0.146,0.402-0.345,0.796-0.46,0.907
		c-0.081,0.079-0.111,0.094-0.197,0.101L71.342,8.727L71.342,8.727z"/>
	<path fill="#856D46" d="M153.586,83.909c-0.009-0.192,0.092-1.183,0.225-2.2c0.672-5.199,0.742-11.095,0.183-15.363
		c-1.683-12.841-8.931-26.257-20.308-37.593c-9.431-9.395-17.887-14.543-27.244-16.583c-3.838-0.837-9.666-1.45-18.53-1.949
		c-5.729-0.323-8.504-1.057-10.449-2.765c-0.81-0.712-1.061-1.298-1.039-2.428c0.018-0.883,0.032-0.919,0.14-0.361
		c0.178,0.913,0.585,1.43,1.578,2.003c2.165,1.25,3.547,1.413,14.253,1.689c10,0.257,11.795,0.512,18.687,2.651
		c10.772,3.344,18.435,8.571,27.493,18.759c3.701,4.163,6.376,8.378,10.307,16.245c4.917,9.842,6.393,15.735,6.396,25.552
		c0.002,4.092-0.146,5.957-0.699,8.885c-0.362,1.916-0.969,4.027-0.994,3.458H153.586z"/>
	<path fill="#B09364" d="M59.366,1.086c0.188-0.184,0.559-0.482,0.599-0.482l0.002,0.037l-0.059,0.165l-0.043,0.128l-0.326,0.169
		l-0.351,0.175L59.366,1.086L59.366,1.086z"/>
	<path fill="#B09364" d="M63.84,1.639c0.025-0.117,0.535-0.741,0.563-0.69l0.024,0.183l0.011,0.159l-0.264,0.18l-0.307,0.211
		L63.84,1.639L63.84,1.639z"/>
	<path fill="#B09364" d="M69.098,3.172c0.631-0.699,1.307-1.246,2.002-1.622l0.153-0.072l-0.045,0.113
		c-0.077,0.175-0.188,0.461-0.188,0.483l-0.119,0.084c-0.385,0.201-1.316,0.792-1.781,1.129L68.86,3.46
		C68.848,3.46,68.954,3.331,69.098,3.172L69.098,3.172z"/>
	<path fill="#B09364" d="M74.945,2.423c0.044-0.071,0.888-0.788,1.386-1.177c0.521-0.408,1.624-1.204,1.642-1.186l-0.194,0.484
		l-0.203,0.475l-0.141,0.06c-0.498,0.213-1.522,0.765-2.146,1.156l-0.345,0.209L74.945,2.423L74.945,2.423z"/>
	<path fill="#856D46" d="M69.614,88.852c0.112,0.039,0.164,0.219,0.219,0.488l0.103,0.463c0.046,0.17,0.109,0.35,0.212,0.516
		c0.158,0.291,0.448,0.578,0.838,0.854c0.392,0.272,0.904,0.496,1.523,0.72c0.645,0.225,1.384,0.403,2.21,0.562
		c0.854,0.163,1.778,0.291,2.766,0.385c0.988,0.095,2.041,0.155,3.148,0.196c1.895,0.068,3.921,0.056,6.029-0.037l0.879-0.043
		c2.393-0.13,4.656-0.346,6.721-0.643c1.023-0.15,1.987-0.308,2.881-0.49c0.893-0.184,1.715-0.393,2.463-0.629
		c0.681-0.217,1.27-0.434,1.76-0.691c0.429-0.244,0.764-0.439,0.955-0.671c0.091-0.101,0.164-0.197,0.209-0.29
		c0.055-0.102,0.082-0.227,0.091-0.352c0.019-0.178-0.017-0.355-0.062-0.521l-0.143-0.449c-0.085-0.264-0.116-0.446-0.036-0.53
		c0.081-0.086,0.271-0.078,0.552,0.076c0.142,0.077,0.305,0.192,0.476,0.366c0.17,0.175,0.347,0.41,0.491,0.739
		c0.104,0.256,0.168,0.563,0.152,0.91c-0.019,0.306-0.094,0.619-0.23,0.912c-0.283,0.595-0.744,1.14-1.268,1.547
		c-0.586,0.477-1.279,0.896-2.02,1.253c-0.809,0.393-1.704,0.748-2.666,1.058c-0.963,0.311-1.99,0.573-3.055,0.801
		c-2.172,0.469-4.568,0.793-7.078,0.945l-0.924,0.049c-2.219,0.098-4.37,0.051-6.378-0.128c-1.165-0.102-2.296-0.249-3.367-0.45
		c-1.071-0.201-2.082-0.455-3.012-0.759c-0.904-0.293-1.751-0.649-2.493-1.067c-0.712-0.395-1.349-0.889-1.828-1.435
		c-0.515-0.573-0.796-1.255-0.873-1.847c-0.035-0.354,0-0.65,0.061-0.893c0.061-0.244,0.148-0.433,0.236-0.576
		c0.176-0.283,0.347-0.381,0.459-0.34H69.614z"/>
	<path fill="#F7EDBF" fill-opacity="0.785" d="M115.57,63.891c0,1.481-1.2,2.683-2.682,2.683c-1.48,0-2.682-1.201-2.682-2.683
		c0-1.48,1.201-2.682,2.682-2.682C114.37,61.209,115.57,62.41,115.57,63.891z"/>
	<path fill="#856D46" d="M18.299,56.45c-0.018-0.524,1.15-4.785,1.941-7.077c1.907-5.53,4.461-10.597,7.726-15.323
		c3.788-5.484,6.512-8.658,12.894-15.029c6.988-6.974,9.385-9.912,9.678-11.863c0.094-0.626-0.035-1.286-0.543-2.766
		c-0.048-0.14,0.071-0.064,0.264,0.169c0.977,1.176,1.131,4.065,0.304,5.685c-0.505,0.988-4.176,5.438-9.342,11.322
		c-6.819,7.768-8.487,9.846-11.613,14.469c-3.983,5.89-6.502,10.491-11.021,20.138C18.404,56.565,18.306,56.659,18.299,56.45
		L18.299,56.45z"/>
</g>
</svg>
